<svg width="325" height="212" viewBox="0 0 325 212" fill="none" xmlns="http://www.w3.org/2000/svg">
<path d="M236.531 16.1112H23.3148C23.0983 16.1065 22.8922 16.0155 22.7407 15.8577C22.5892 15.6999 22.5044 15.4879 22.5044 15.2672C22.5044 15.0464 22.5892 14.8344 22.7407 14.6766C22.8922 14.5188 23.0983 14.4278 23.3148 14.4231H236.531C236.748 14.4278 236.954 14.5188 237.106 14.6766C237.257 14.8344 237.342 15.0464 237.342 15.2672C237.342 15.4879 237.257 15.6999 237.106 15.8577C236.954 16.0155 236.748 16.1065 236.531 16.1112Z" fill="#CACACA"/>
<path d="M37.4856 10.1136C40.1651 10.1136 42.3372 7.84955 42.3372 5.05678C42.3372 2.264 40.1651 0 37.4856 0C34.8061 0 32.6339 2.264 32.6339 5.05678C32.6339 7.84955 34.8061 10.1136 37.4856 10.1136Z" fill="#3F3D56"/>
<path d="M54.2458 10.1136C56.9253 10.1136 59.0974 7.84955 59.0974 5.05678C59.0974 2.264 56.9253 0 54.2458 0C51.5663 0 49.3941 2.264 49.3941 5.05678C49.3941 7.84955 51.5663 10.1136 54.2458 10.1136Z" fill="#3F3D56"/>
<path d="M71.006 10.1136C73.6855 10.1136 75.8576 7.84955 75.8576 5.05678C75.8576 2.264 73.6855 0 71.006 0C68.3265 0 66.1544 2.264 66.1544 5.05678C66.1544 7.84955 68.3265 10.1136 71.006 10.1136Z" fill="#3F3D56"/>
<path d="M226.44 1.25337H214.535C214.299 1.25816 214.074 1.35711 213.909 1.52895C213.744 1.70079 213.651 1.93184 213.651 2.17248C213.651 2.41312 213.744 2.64416 213.909 2.816C214.074 2.98785 214.299 3.08678 214.535 3.09158H226.44C226.676 3.08678 226.901 2.98785 227.066 2.816C227.232 2.64416 227.324 2.41312 227.324 2.17248C227.324 1.93184 227.232 1.70079 227.066 1.52895C226.901 1.35711 226.676 1.25816 226.44 1.25337Z" fill="#3F3D56"/>
<path d="M226.44 4.70338H214.535C214.299 4.70818 214.074 4.80712 213.909 4.97896C213.744 5.15081 213.651 5.38185 213.651 5.62249C213.651 5.86313 213.744 6.09417 213.909 6.26602C214.074 6.43786 214.299 6.5368 214.535 6.54159H226.44C226.676 6.5368 226.901 6.43786 227.066 6.26602C227.232 6.09417 227.324 5.86313 227.324 5.62249C227.324 5.38185 227.232 5.15081 227.066 4.97896C226.901 4.80712 226.676 4.70818 226.44 4.70338Z" fill="#3F3D56"/>
<path d="M226.44 8.14888H214.535C214.299 8.15367 214.074 8.25261 213.909 8.42445C213.744 8.59629 213.651 8.82734 213.651 9.06798C213.651 9.30862 213.744 9.53966 213.909 9.7115C214.074 9.88335 214.299 9.98229 214.535 9.98708H226.44C226.676 9.98229 226.901 9.88335 227.066 9.7115C227.232 9.53966 227.324 9.30862 227.324 9.06798C227.324 8.82734 227.232 8.59629 227.066 8.42445C226.901 8.25261 226.676 8.15367 226.44 8.14888Z" fill="#3F3D56"/>
<path d="M81.9491 169.215L82.2412 61.7952C82.2495 59.6211 83.1034 57.539 84.6154 56.0059C86.1275 54.4728 88.1743 53.6138 90.3067 53.6174L169.876 53.8423C172.009 53.8508 174.051 54.7214 175.554 56.263C177.058 57.8046 177.901 59.8914 177.897 62.0656L177.605 169.486C177.597 171.66 176.743 173.742 175.231 175.275C173.719 176.808 171.672 177.667 169.54 177.663L89.97 177.439C87.8376 177.43 85.7955 176.56 84.2918 175.018C82.7881 173.476 81.9456 171.389 81.9491 169.215Z" fill="#E6E6E6"/>
<path d="M88.1408 136.787L88.3286 67.7278C88.3363 65.6916 89.136 63.7417 90.5521 62.3059C91.9682 60.8701 93.8851 60.0656 95.8822 60.069L164.265 60.2623C166.263 60.2702 168.175 61.0855 169.584 62.5293C170.992 63.9731 171.781 65.9275 171.778 67.9637L171.518 163.553C171.51 165.589 170.71 167.539 169.294 168.975C167.878 170.411 165.961 171.215 163.964 171.212L121.602 171.092C112.706 171.057 104.187 167.425 97.9139 160.994C91.641 154.563 88.1262 145.857 88.1408 136.787Z" fill="white"/>
<path d="M156.584 113.979H103.262C102.414 113.979 101.6 113.636 101 113.024C100.4 112.412 100.063 111.583 100.063 110.718C100.063 109.852 100.4 109.023 101 108.411C101.6 107.799 102.414 107.456 103.262 107.456H156.584C157.432 107.456 158.246 107.799 158.846 108.411C159.446 109.023 159.783 109.852 159.783 110.718C159.783 111.583 159.446 112.412 158.846 113.024C158.246 113.636 157.432 113.979 156.584 113.979Z" fill="#FAEDD8"/>
<path d="M114.993 96.0911H103.262C102.414 96.0911 101.6 95.7475 101 95.1358C100.4 94.524 100.063 93.6944 100.063 92.8293C100.063 91.9642 100.4 91.1345 101 90.5228C101.6 89.9111 102.414 89.5674 103.262 89.5674H114.993C115.842 89.5674 116.655 89.9111 117.255 90.5228C117.855 91.1345 118.192 91.9642 118.192 92.8293C118.192 93.6944 117.855 94.524 117.255 95.1358C116.655 95.7475 115.842 96.0911 114.993 96.0911Z" fill="#FAEDD8"/>
<path d="M156.584 142.659H103.262C102.414 142.659 101.6 142.316 101 141.704C100.4 141.092 100.063 140.263 100.063 139.398C100.063 138.533 100.4 137.703 101 137.091C101.6 136.479 102.414 136.136 103.262 136.136H156.584C157.432 136.136 158.246 136.479 158.846 137.091C159.446 137.703 159.783 138.533 159.783 139.398C159.783 140.263 159.446 141.092 158.846 141.704C158.246 142.316 157.432 142.659 156.584 142.659Z" fill="#FAEDD8"/>
<path d="M156.584 128.319H103.262C102.414 128.319 101.6 127.976 101 127.364C100.4 126.752 100.063 125.923 100.063 125.058C100.063 124.193 100.4 123.363 101 122.751C101.6 122.139 102.414 121.796 103.262 121.796H156.584C157.432 121.796 158.246 122.139 158.846 122.751C159.446 123.363 159.783 124.193 159.783 125.058C159.783 125.923 159.446 126.752 158.846 127.364C158.246 127.976 157.432 128.319 156.584 128.319Z" fill="#FAEDD8"/>
<path d="M12.73 212C19.7605 212 25.4599 206.189 25.4599 199.021C25.4599 191.853 19.7605 186.042 12.73 186.042C5.6994 186.042 0 191.853 0 199.021C0 206.189 5.6994 212 12.73 212Z" fill="#FAEDD8"/>
<path d="M10.9934 205.776C10.7735 205.776 10.5567 205.724 10.3601 205.624C10.1635 205.523 9.9925 205.378 9.86065 205.198L6.38772 200.477C6.27591 200.325 6.1945 200.153 6.14817 199.969C6.10184 199.785 6.09148 199.594 6.1177 199.406C6.14392 199.218 6.2062 199.038 6.30097 198.874C6.39574 198.711 6.52114 198.569 6.67001 198.455C6.81889 198.341 6.98831 198.258 7.16859 198.211C7.34887 198.164 7.53648 198.154 7.72068 198.181C7.90488 198.208 8.08206 198.271 8.2421 198.368C8.40214 198.465 8.54189 198.593 8.65337 198.745L10.9255 201.833L16.7611 192.909C16.9696 192.591 17.2935 192.37 17.6615 192.295C18.0296 192.22 18.4118 192.297 18.7241 192.509C19.0364 192.722 19.2533 193.052 19.3271 193.427C19.4008 193.802 19.3255 194.192 19.1176 194.51L12.1717 205.133C12.046 205.325 11.877 205.484 11.6789 205.596C11.4807 205.707 11.2591 205.769 11.0328 205.776C11.0196 205.776 11.0065 205.776 10.9934 205.776Z" fill="white"/>
<path d="M12.8435 170.582H11.927V173.385H12.8435V170.582Z" fill="#2F2E41"/>
<path d="M12.8435 165.229H11.927V159.877H12.8435V165.229ZM12.8435 154.524H11.927V149.172H12.8435V154.524ZM12.8435 143.819H11.927V138.467H12.8435V143.819ZM12.8435 133.114H11.927V127.762H12.8435V133.114ZM12.8435 122.409H11.927V117.057H12.8435V122.409Z" fill="#2F2E41"/>
<path d="M12.8436 111.705H11.9271V108.434H15.1348V109.369H12.8436V111.705Z" fill="#2F2E41"/>
<path d="M58.3938 109.369H52.9864V108.434H58.3938V109.369ZM47.579 109.369H42.1716V108.434H47.579V109.369ZM36.7642 109.369H31.3568V108.434H36.7642V109.369ZM25.9494 109.369H20.5421V108.434H25.9494V109.369Z" fill="#2F2E41"/>
<path d="M66.5508 108.434H63.8014V109.369H66.5508V108.434Z" fill="#2F2E41"/>
<path d="M307.636 142.386H306.72V145.19H307.636V142.386Z" fill="#2F2E41"/>
<path d="M307.636 136.25H306.72V130.114H307.636V136.25ZM307.636 123.977H306.72V117.841H307.636V123.977Z" fill="#2F2E41"/>
<path d="M307.636 111.705H306.72V109.369H304.428V108.434H307.636V111.705Z" fill="#2F2E41"/>
<path d="M298.732 109.369H293.035V108.434H298.732V109.369ZM287.338 109.369H281.641V108.434H287.338V109.369ZM275.945 109.369H270.248V108.434H275.945V109.369ZM264.551 109.369H258.854V108.434H264.551V109.369ZM253.158 109.369H247.461V108.434H253.158L253.158 109.369ZM241.764 109.369H236.067V108.434H241.764V109.369ZM230.371 109.369H224.674V108.434H230.371V109.369ZM218.977 109.369H213.28V108.434H218.977V109.369ZM207.584 109.369H201.887V108.434H207.584V109.369Z" fill="#2F2E41"/>
<path d="M196.19 108.434H193.441V109.369H196.19V108.434Z" fill="#2F2E41"/>
<path d="M307.466 179.296C314.496 179.296 320.196 173.485 320.196 166.317C320.196 159.149 314.496 153.338 307.466 153.338C300.435 153.338 294.736 159.149 294.736 166.317C294.736 173.485 300.435 179.296 307.466 179.296Z" fill="#FAEDD8"/>
<path d="M309.97 166.317L312.474 163.763C312.805 163.425 312.991 162.966 312.99 162.488C312.99 162.009 312.803 161.551 312.472 161.213C312.14 160.875 311.69 160.685 311.222 160.684C310.753 160.684 310.302 160.873 309.97 161.21L307.466 163.763L304.962 161.21C304.629 160.873 304.179 160.684 303.71 160.684C303.241 160.685 302.792 160.875 302.46 161.213C302.128 161.551 301.942 162.009 301.941 162.488C301.941 162.966 302.126 163.425 302.457 163.763L304.962 166.317L302.457 168.87C302.292 169.037 302.161 169.236 302.071 169.456C301.981 169.675 301.935 169.91 301.934 170.148C301.934 170.385 301.98 170.621 302.069 170.84C302.158 171.06 302.288 171.259 302.453 171.427C302.618 171.595 302.814 171.729 303.029 171.819C303.244 171.91 303.475 171.957 303.708 171.956C303.941 171.956 304.172 171.909 304.387 171.817C304.602 171.726 304.797 171.592 304.962 171.423L307.466 168.87L309.97 171.423C310.134 171.592 310.33 171.726 310.545 171.817C310.76 171.909 310.99 171.956 311.223 171.956C311.457 171.957 311.687 171.91 311.903 171.819C312.118 171.729 312.314 171.595 312.479 171.427C312.643 171.259 312.774 171.06 312.863 170.84C312.952 170.621 312.998 170.385 312.997 170.148C312.997 169.91 312.95 169.675 312.861 169.456C312.771 169.236 312.64 169.037 312.474 168.87L309.97 166.317Z" fill="white"/>
<path d="M271.749 88.6578L274.498 105.297L300.618 90.9939L271.749 88.6578Z" fill="#2F2E41"/>
<path d="M268.628 192.117L263.156 191.889L261.414 170.263L269.489 170.599L268.628 192.117Z" fill="#FFB6B6"/>
<path d="M269 130.239C278.925 127.154 280.962 113.963 286.413 111.084C286.399 104.117 286.674 82.5131 279.853 82.9244C276.054 83.1535 254.889 122.651 253.982 129.195C252.299 141.336 261.286 172.322 260.243 174.451L270.679 175.124L270.74 174.287C270.906 172.015 272.569 165.166 270.672 163.963L269.952 163.508C269.959 161.146 270.464 157.122 268.375 156.102C268.348 156.089 268.325 156.071 268.306 156.048C268.287 156.025 268.272 155.998 268.264 155.97C268.256 155.941 268.253 155.91 268.257 155.881C268.261 155.851 268.271 155.822 268.287 155.797L269 130.239Z" fill="#2F2E41"/>
<path d="M271.448 196.956L267.788 197.176L266.932 193.693L265.463 197.315L255.758 197.899C255.293 197.927 254.831 197.802 254.44 197.544C254.049 197.285 253.749 196.906 253.585 196.462C253.42 196.017 253.399 195.531 253.525 195.073C253.65 194.616 253.916 194.211 254.284 193.919L261.718 187.996L261.512 184.435L269.692 184.441L271.448 196.956Z" fill="#2F2E41"/>
<path d="M310.335 153.141L315.793 153.591L320.096 132.341L312.04 131.675L310.335 153.141Z" fill="#FFB6B6"/>
<path d="M308.195 99.2851C303.299 108.056 294.542 110.15 285.461 111.685C281.512 105.999 275.494 98.0726 281.286 94.3776C284.512 92.3198 312.476 75.6732 316.793 80.6031C328.064 93.474 320.023 134.892 320.716 133.977L311.789 133.844L311.263 133.198C310.563 132.338 310.108 131.298 309.947 130.193C309.785 129.087 309.924 127.958 310.347 126.927L310.674 126.131C310.014 125.19 309.629 124.077 309.564 122.922C309.499 121.766 309.756 120.616 310.307 119.604L310.42 119.395L308.195 99.2851Z" fill="#2F2E41"/>
<path d="M310.192 145.39L318.312 146.396L317.684 149.905L324.359 156.703C324.689 157.039 324.904 157.474 324.975 157.943C325.045 158.413 324.967 158.893 324.75 159.314C324.534 159.735 324.191 160.074 323.773 160.282C323.354 160.491 322.881 160.557 322.422 160.472L312.858 158.692L311.831 154.915L310.566 158.266L306.96 157.595L310.192 145.39Z" fill="#2F2E41"/>
<path d="M288.973 29.3226H285.227C284.462 29.3226 283.708 29.5118 283.03 29.8738C282.352 30.2359 281.771 30.7601 281.335 31.4014L278.623 35.3963L271.864 36.6496C269.516 38.128 267.747 40.3947 266.862 43.0595C265.977 45.7243 266.031 48.6204 267.015 51.249C271.798 64.0028 274.106 87.9074 269.458 98.4691C269.458 98.4691 297.659 101.074 304.742 92.3954C311.826 83.7171 306.117 41.47 306.117 41.47L295.577 35.3963L292.865 31.4016C292.429 30.7601 291.848 30.2359 291.17 29.8739C290.492 29.5118 289.738 29.3226 288.973 29.3226Z" fill="#FAEDD8"/>
<path d="M306.451 103.969C306.768 103.629 307.008 103.222 307.154 102.776C307.3 102.331 307.349 101.858 307.296 101.392C307.244 100.925 307.091 100.476 306.85 100.076C306.609 99.6763 306.285 99.3351 305.9 99.0766L312.074 78.3792L305.201 74.1744L301.386 100.166C301.003 100.854 300.881 101.66 301.042 102.434C301.204 103.207 301.637 103.893 302.262 104.362C302.886 104.83 303.657 105.049 304.43 104.977C305.202 104.905 305.921 104.546 306.451 103.969H306.451Z" fill="#FFB6B6"/>
<path d="M312.532 80.7152L304.284 77.4448L304.636 73.2459L294.836 51.3731C294.351 50.292 294.106 49.1153 294.118 47.9267C294.13 46.7382 294.398 45.5668 294.904 44.4958C295.41 43.4248 296.14 42.4805 297.044 41.7298C297.948 40.9792 299.003 40.4406 300.134 40.1524C302.178 39.6341 304.339 39.9635 306.145 41.0682C307.95 42.173 309.252 43.9629 309.765 46.0452L316.206 72.3223C316.951 76.4008 316.109 79.4468 312.532 80.7152Z" fill="#FAEDD8"/>
<path d="M301.122 16.5913C301.122 12.8058 299.647 9.17541 297.022 6.49868C294.397 3.82195 290.836 2.31818 287.123 2.31818C283.41 2.31818 279.849 3.82195 277.224 6.49868C274.599 9.17541 273.124 12.8058 273.124 16.5913V25.5383C273.124 26.0461 273.322 26.5329 273.675 26.892C274.027 27.2511 274.504 27.4531 275.002 27.4538H275.346C275.743 26.2946 275.985 25.0861 276.066 23.861C276.788 24.9653 277.339 26.1774 277.697 27.4538H299.239C299.737 27.4533 300.215 27.2515 300.568 26.8925C300.921 26.5335 301.12 26.0466 301.122 25.5383C302.254 23.1836 302.763 20.4831 301.122 16.5913Z" fill="#2F2E41"/>
<path d="M286.559 27.3656C292.227 27.3656 296.822 22.6807 296.822 16.9015C296.822 11.1223 292.227 6.43736 286.559 6.43736C280.891 6.43736 276.295 11.1223 276.295 16.9015C276.295 22.6807 280.891 27.3656 286.559 27.3656Z" fill="#FFB8B8"/>
<path d="M276.014 16.8612C275.916 16.7458 275.843 16.6102 275.801 16.4637C275.759 16.3172 275.748 16.1632 275.769 16.012L276.985 7.3804C277.009 7.20477 277.076 7.03803 277.179 6.89528C277.282 6.75253 277.419 6.63827 277.576 6.56284C283.782 3.60174 290.075 3.59799 296.28 6.55163C296.445 6.63119 296.586 6.75295 296.691 6.90501C296.796 7.05706 296.86 7.23421 296.877 7.41912L298.147 14.1931C298.161 14.3409 298.144 14.4899 298.098 14.6308C298.052 14.7716 297.978 14.9012 297.88 15.0111C297.683 15.2325 297.406 20.1 297.113 20.1C297.36 17.1988 296.761 15.8106 294.59 17.2286C294.392 17.2281 294.197 17.1701 294.03 17.0613C293.862 16.9525 293.728 16.7974 293.644 16.6141L292.755 14.6735C292.698 14.5479 292.602 14.4447 292.482 14.3796C292.362 14.3144 292.224 14.2908 292.09 14.3124C291.956 14.334 291.832 14.3995 291.737 14.4991C291.643 14.5987 291.582 14.7269 291.566 14.8645L291.39 16.2953C291.358 16.5529 291.235 16.7897 291.045 16.9615C290.854 17.1333 290.608 17.2282 290.353 17.2286C286.727 19.0634 281.97 18.5696 276.803 17.2286C276.654 17.2286 276.506 17.1958 276.369 17.1324C276.233 17.069 276.112 16.9765 276.014 16.8612Z" fill="#2F2E41"/>
<path d="M294.743 75.0809H277.921C277.345 75.0802 276.793 74.8467 276.386 74.4314C275.979 74.0161 275.749 73.4531 275.749 72.8658V54.4308C275.749 53.8436 275.979 53.2805 276.386 52.8652C276.793 52.45 277.345 52.2164 277.921 52.2157H294.743C295.319 52.2164 295.871 52.45 296.278 52.8652C296.686 53.2805 296.915 53.8436 296.915 54.4308V72.8658C296.915 73.4531 296.686 74.0161 296.278 74.4314C295.871 74.8467 295.319 75.0802 294.743 75.0809Z" fill="#3F3D56"/>
<path d="M278.395 56.1979C279.091 56.1979 279.655 55.6227 279.655 54.9133C279.655 54.2039 279.091 53.6287 278.395 53.6287C277.699 53.6287 277.135 54.2039 277.135 54.9133C277.135 55.6227 277.699 56.1979 278.395 56.1979Z" fill="#E6E6E6"/>
<path d="M278.395 55.684C278.812 55.684 279.151 55.339 279.151 54.9133C279.151 54.4876 278.812 54.1426 278.395 54.1426C277.977 54.1426 277.639 54.4876 277.639 54.9133C277.639 55.339 277.977 55.684 278.395 55.684Z" fill="#3F3D56"/>
<path d="M297.727 62.6561C297.353 63.0795 296.893 63.4141 296.378 63.6365C295.864 63.8588 295.308 63.9635 294.75 63.9431C294.191 63.9226 293.644 63.7777 293.147 63.5183C292.649 63.259 292.214 62.8916 291.871 62.442L276.79 66.6991L274.498 61.5598L292.734 56.7719C293.513 56.2342 294.458 56.0066 295.391 56.1321C296.324 56.2576 297.179 56.7276 297.794 57.4529C298.409 58.1782 298.743 59.1085 298.73 60.0675C298.718 61.0265 298.361 61.9475 297.727 62.6561H297.727Z" fill="#FFB8B8"/>
<path d="M278.581 66.8314L274.349 68.2085C269.747 73.166 268.119 69.5687 262.695 69.1965C261.675 69.1265 260.876 68.2724 260.322 66.6584C259.567 64.3888 259.642 61.9173 260.534 59.6999L268.068 40.4492L271.221 37.8151L275.624 43.1944L272.244 57.9835L277.793 60.8673L278.581 66.8314Z" fill="#FAEDD8"/>
</svg>
